<svg id="Layer_1" data-name="Layer 1" xmlns="http://www.w3.org/2000/svg" viewBox="0 0 334.4 372.72"><defs><style>.cls-1{fill:#fff;}</style></defs><title>logo</title><path class="cls-1" d="M254.5,260c-4,48-46.5,56.5-46.5,56.5,94-76.5-47.5-115-47.5-115C14.5,142,49,87.5,49,87.5,51.5,70,29.67,77,29.67,77-23.33,137,102,238.33,102,238.33c78.67,70.67,78.67,210,78.67,210L239,448c5.5-28.67-21-74.67-21-74.67,22.17,9.83,37.33,74.5,37.33,74.5L278.67,448l16-57.5c-10.5,44.33.5,57.17,0.5,57.17L351,447C345,339,254.5,260,254.5,260Zm-67.23-6.21a4.72,4.72,0,0,1-1.37.83,7.86,7.86,0,0,1-3.51,1,10.25,10.25,0,0,1-9.66-6.88,9.36,9.36,0,0,1,2.6-8.79c4.38-4.41,13.61-1.81,15.42,4a8.09,8.09,0,0,1-.72,6.45A8.17,8.17,0,0,1,187.27,253.79Z" transform="translate(-16.6 -75.62)"/></svg>