<svg id="Layer_1" data-name="Layer 1" xmlns="http://www.w3.org/2000/svg" viewBox="0 0 334.4 372.72"><defs><style>.cls-1{fill:#cfb458;}</style></defs><title>logoB</title><path class="cls-1" d="M259.17,260c-4,48-46.5,56.5-46.5,56.5,94-76.5-47.5-115-47.5-115-146-59.5-111.5-114-111.5-114C56.17,70,34.33,77,34.33,77c-53,60,72.33,161.33,72.33,161.33,78.67,70.67,78.67,210,78.67,210l58.33-.33c5.5-28.67-21-74.67-21-74.67,22.17,9.83,37.33,74.5,37.33,74.5L283.33,448l16-57.5c-10.5,44.33.5,57.17,0.5,57.17l55.83-.67C349.67,339,259.17,260,259.17,260Zm-67.23-6.21a4.72,4.72,0,0,1-1.37.83,7.86,7.86,0,0,1-3.51,1,10.25,10.25,0,0,1-9.66-6.88A9.36,9.36,0,0,1,180,240c4.38-4.41,13.61-1.81,15.42,4a8.09,8.09,0,0,1-.72,6.45A8.17,8.17,0,0,1,191.93,253.79Z" transform="translate(-21.27 -75.62)"/></svg>